<svg xmlns="http://www.w3.org/2000/svg" width="20.837" height="16.355" viewBox="0 0 20.837 16.355"><defs><style>.a{fill:#fff;}</style></defs><g transform="translate(0 -55.062)"><path class="a" d="M20.783,57.39a2.882,2.882,0,0,0-.6-1.264,2.484,2.484,0,0,0-.2-.218,2.884,2.884,0,0,0-2.044-.847H2.89a2.888,2.888,0,0,0-2.043.847,2.538,2.538,0,0,0-.2.218A2.848,2.848,0,0,0,.056,57.39,2.8,2.8,0,0,0,0,57.953V68.527a2.874,2.874,0,0,0,.239,1.148,2.833,2.833,0,0,0,.607.9c.065.065.129.124.2.183a2.888,2.888,0,0,0,1.844.664H17.947a2.87,2.87,0,0,0,1.845-.667,2.5,2.5,0,0,0,.2-.18,2.892,2.892,0,0,0,.61-.9v0a2.86,2.86,0,0,0,.237-1.145V57.953A2.97,2.97,0,0,0,20.783,57.39ZM1.893,56.955a1.4,1.4,0,0,1,1-.414H17.947a1.389,1.389,0,0,1,1.124.562L11.18,63.981a1.158,1.158,0,0,1-1.522,0L1.769,57.1A1.067,1.067,0,0,1,1.893,56.955ZM1.479,68.527v-9.9L7.19,63.612,1.482,68.589A.422.422,0,0,1,1.479,68.527Zm16.468,1.411H2.89a1.392,1.392,0,0,1-.7-.185L8.214,64.5l.562.489a2.5,2.5,0,0,0,3.288,0l.562-.489,6.02,5.248A1.394,1.394,0,0,1,17.947,69.938Zm1.412-1.411a.44.44,0,0,1,0,.062l-5.708-4.974,5.711-4.982Z" transform="translate(0 0)"/></g></svg>