<svg xmlns="http://www.w3.org/2000/svg" width="222" height="134.678" viewBox="0 0 222 134.678"><defs><style>.a{fill:#1a3455;}.b{fill:#f2526e;}.c{fill:#fff;}</style></defs><g transform="translate(-453 -2643)"><g transform="translate(453 2668.291)"><path class="a" d="M73.41,334.381h49.867V320.708c12.87-1.61,28.152-21.717,28.152-34.585H73.41Z" transform="translate(-73.41 -224.994)"/><rect class="a" width="27.347" height="57.105" transform="translate(0)"/><path class="a" d="M263.573,222.118H222.744v9.65h46.115V227.4A5.286,5.286,0,0,0,263.573,222.118Z" transform="translate(-190.839 -174.663)"/></g><g transform="translate(530.778 2643)"><g transform="translate(32.208 0)"><g transform="translate(0 0)"><path class="b" d="M188.5,377.647c-12.166.235-18.123,8.845-19.444,16.674-1.319-7.829-7.276-16.441-19.444-16.674-11.218-.215-20.495,8.414-20.495,24.163,0,20.217,22.867,29.557,38.507,44.658.545.526.416.513.416.513a1.313,1.313,0,0,0,1.014.5h0a1.312,1.312,0,0,0,1.014-.5s-.128.013.416-.513c15.638-15.1,38.507-24.441,38.507-44.658C208.995,386.06,199.718,377.431,188.5,377.647Z" transform="translate(-129.116 -377.643)"/></g></g><g transform="translate(0 17.793)"><g transform="translate(0 0)"><path class="c" d="M89.19,428.276a2.565,2.565,0,0,1-2.283-1.4l-1.454-2.84a2.564,2.564,0,0,1,1.575-3.634,17.037,17.037,0,0,0,4.647-2.216,22.7,22.7,0,0,0,1.961-1.451q-1.748-1.043-4.309-2.489a2.565,2.565,0,0,1-.712-3.873l2.026-2.439A2.565,2.565,0,0,1,93.8,407.3c1.795.933,3.45,1.843,4.946,2.718a18.664,18.664,0,0,0,1.507-4.885,2.568,2.568,0,0,1,2.818-2.148l3.6.4a2.566,2.566,0,0,1,2.247,2.968,28.645,28.645,0,0,1-2.847,8.581c1.312,1.006,2.641,2.1,3.972,3.257a2.565,2.565,0,0,1,.2,3.67l-2.531,2.748a2.563,2.563,0,0,1-1.887.827h-.006a2.562,2.562,0,0,1-1.889-.836,27.586,27.586,0,0,0-3-2.725,26.035,26.035,0,0,1-11.018,6.3A2.558,2.558,0,0,1,89.19,428.276Z" transform="translate(-85.171 -402.199)"/><rect class="c" width="26.167" height="8.176" rx="3.5" transform="translate(23.934 9.516)"/><path class="c" d="M153.048,428.538a2.566,2.566,0,0,1-2.067-1.044l-1.763-2.394a2.565,2.565,0,0,1,.7-3.692,14.832,14.832,0,0,0,4.132-3.776,9.321,9.321,0,0,0,1.3-2.666h-2.722a2.565,2.565,0,0,1-2.565-2.565V409.47a2.565,2.565,0,0,1,2.565-2.565h3.613q.006-.722.005-1.592a2.565,2.565,0,0,1,2.565-2.565H162.3a2.565,2.565,0,0,1,2.565,2.565q0,.849-.006,1.592h6.831a2.565,2.565,0,0,1,2.565,2.565v2.771a38.643,38.643,0,0,1-.8,8.9c-.644,2.624-1.686,4.389-3.182,5.4a8.473,8.473,0,0,1-4.828,1.382,35.758,35.758,0,0,1-4.877-.532,2.566,2.566,0,0,1-2.147-2.078,22.494,22.494,0,0,1-4.137,2.909A2.563,2.563,0,0,1,153.048,428.538Zm9.79-9.187c1.169.18,1.785.249,2.1.274a9.1,9.1,0,0,0,.426-1.924c.122-.9.2-1.808.242-2.715l-1.382,0A20.885,20.885,0,0,1,162.838,419.351Z" transform="translate(-102.144 -402.141)"/><rect class="c" width="26.167" height="8.176" rx="3.5" transform="translate(70.84 9.516)"/><path class="c" d="M221.311,428.042h-3.1a2.565,2.565,0,0,1-2.565-2.565v-5.312a2.581,2.581,0,0,1-.364-.249l-2.073-1.694a2.565,2.565,0,0,1-.516-3.4,29.963,29.963,0,0,0,2.559-5.075,27.968,27.968,0,0,0,1.725-5.7,2.568,2.568,0,0,1,2.834-2.109l3.138.377a2.569,2.569,0,0,1,1.106.406h11.986a2.565,2.565,0,0,1,2.565,2.565v7.4a2.563,2.563,0,0,1,1.122,2.121v2.508a2.564,2.564,0,0,1-1.307,2.236q.453.3.923.572a2.564,2.564,0,0,1,.764,3.759l-1.832,2.439a2.564,2.564,0,0,1-3.379.654q-.784-.475-1.543-1.032a2.567,2.567,0,0,1-2.477,1.895h-3.115a2.566,2.566,0,0,1-2.468-1.865q-.617.45-1.274.877a116.668,116.668,0,0,0-2.705,1.194Zm7.541-10.165a2.555,2.555,0,0,1,.375.217.663.663,0,0,0,.38-1.059,2.654,2.654,0,0,1-.29-.193,2.512,2.512,0,0,1-.41.257A2.548,2.548,0,0,1,228.852,417.876Z" transform="translate(-119.117 -401.92)"/><path class="c" d="M250.965,428.173h-2.737a2.565,2.565,0,0,1-2.565-2.565V418a2.552,2.552,0,0,1,.32-1.243v-1.826a2.584,2.584,0,0,0,0-1.053v-1.127a2.558,2.558,0,0,1-.813-1.873v-2.3a2.555,2.555,0,0,1,.79-1.851v-1.148a2.565,2.565,0,0,1,2.565-2.565h7.111a2.559,2.559,0,0,1,.871.152,2.611,2.611,0,0,1,.274-.015h12.436a2.565,2.565,0,0,1,2.565,2.565v2.622a2.565,2.565,0,0,1-2.565,2.565h-1.145v.149h.7a2.565,2.565,0,0,1,2.565,2.565v2.611a2.565,2.565,0,0,1-2.565,2.565h-.7v1.386h1.489a2.565,2.565,0,0,1,2.565,2.565v2.668a2.565,2.565,0,0,1-2.565,2.565H256.244a2.557,2.557,0,0,1-1.709-.652h-1.664A2.559,2.559,0,0,1,250.965,428.173Z" transform="translate(-127.906 -402.212)"/><g transform="translate(2.565 2.565)"><path class="b" d="M107.314,406.868a25.808,25.808,0,0,1-3.676,9.7q2.77,1.982,5.646,4.489l-2.531,2.748a38.243,38.243,0,0,0-5.165-4.443,23.345,23.345,0,0,1-11.463,7.283l-1.454-2.84a19.49,19.49,0,0,0,5.354-2.542,23.622,23.622,0,0,0,4.677-4.019q-1.924-1.328-7.18-4.294l2.026-2.44q4.123,2.143,7.111,4.043a22.219,22.219,0,0,0,3.058-8.085Z" transform="translate(-88.671 -405.7)"/><path class="b" d="M142.364,421.451H121.327V418.4h21.037Z" transform="translate(-97.393 -408.888)"/><path class="b" d="M163.234,406.248q0,2.635-.057,4.157h9.448v2.771a36.665,36.665,0,0,1-.722,8.286q-.721,2.937-2.124,3.882a5.941,5.941,0,0,1-3.4.945,38.867,38.867,0,0,1-4.5-.5l.138-3.183a33.86,33.86,0,0,0,4.123.538h.126a1.853,1.853,0,0,0,1.694-1.008,8.979,8.979,0,0,0,.876-3.149,31.687,31.687,0,0,0,.292-4.294v-1.329l-6.161-.011a16.366,16.366,0,0,1-8.99,13.559l-1.763-2.394a17.294,17.294,0,0,0,4.838-4.438,14.267,14.267,0,0,0,2.377-6.739h-5.875v-2.932h6.126q.057-1.294.057-4.157Z" transform="translate(-105.644 -405.641)"/><path class="b" d="M206.364,421.451H185.327V418.4h21.037Z" transform="translate(-114.487 -408.888)"/><path class="b" d="M222.246,426.411h-3.1v-9.54q-.458.745-1.305,1.993l-2.073-1.7a32.3,32.3,0,0,0,2.794-5.52,30.426,30.426,0,0,0,1.878-6.23l3.138.378a32.467,32.467,0,0,1-2.13,6.63h.8v10.73a19.411,19.411,0,0,0,5.039-4.913h-4.5v-2.508h5.909v-1.752h-4.9v-7.764h13.181v7.764h-5.165v1.752H238.1v2.508h-5a21.755,21.755,0,0,0,5.9,5.027l-1.832,2.439a21.423,21.423,0,0,1-5.348-4.718v5.21h-3.115v-5.073a22.275,22.275,0,0,1-5.141,4.5l-1.306-1.763Zm11.647-14.75v-3.127h-7.054v3.127Z" transform="translate(-122.617 -405.42)"/><path class="b" d="M257.134,411.816h-8.463v-2.3h8.463Zm-.493,13.88H251.9v.847h-2.737v-7.6h7.478Zm-.069-17.143h-7.111v-2.038h7.111Zm-.114,6.264h-6.974v-1.993h6.974Zm0,3.069h-6.974V415.87h6.974Zm-2.588,5.8v-2.7h-1.878v2.7Zm16.627,2.668H257.179V423.68h1.386V412.331h3.069V423.68h1.638V409.273h-5.554v-2.622h12.436v2.622h-3.71v5.279h3.264v2.611h-3.264v6.516H270.5Z" transform="translate(-131.406 -405.712)"/></g></g></g></g></g></svg>