<svg xmlns="http://www.w3.org/2000/svg" width="231.727" height="134.489" viewBox="0 0 231.727 134.489"><defs><style>.a{fill:#1a3455;}.b{fill:#f2526e;}.c{fill:#fff;}</style></defs><g transform="translate(-812 -2643)"><g transform="translate(812 2678.291)"><path class="a" d="M324.077,75.458l2.17-2.193s3.335-2.864,7.137-1.566c6.62,2.26,14.268-.187,19.572-5.5a30.532,30.532,0,0,0,3.342-4.537,1.2,1.2,0,0,0,.2-1l-.411-1.689a1.212,1.212,0,0,0-.561-.754,1.189,1.189,0,0,0-.928-.117l-13.029,3.625a1.207,1.207,0,0,1-1.3-.451l-5.985-8.245a1.189,1.189,0,0,1-.217-.868l1.205-8.76a1.2,1.2,0,0,1,.868-.995l13.76-3.829a1.207,1.207,0,0,0,.845-1.446l-.544-2.213a1.2,1.2,0,0,0-.548-.748s-1.078-.714-1.863-1.118A20.765,20.765,0,0,0,317.734,54.6c.684,4.84.364,7.414-1.726,9.624-.19.2-.791.8-1.719,1.709Z" transform="translate(-247.142 -29.275)"/><path class="a" d="M95.813,295.418c-14.6,14.151-30.535,29.547-30.535,29.547a2.793,2.793,0,0,0-.05,3.993l6.823,6.823a2.793,2.793,0,0,0,3.989-.047l29.767-30.114Z" transform="translate(-50.651 -237.398)"/><path class="a" d="M251.395,227.162a2.793,2.793,0,0,0-.047-3.989l-58.5-56.927-9.39,9.394,57.117,58.3a2.789,2.789,0,0,0,3.993.047Z" transform="translate(-144.265 -135.823)"/><path class="a" d="M54.306,25.721c-7.044-2.747-18.434-3.145-25.03,3.448-5.194,5.194-12.792,12.8-12.792,12.8-2.707,2.7-.194,5.388-2.193,7.384s-5.194,0-6.994,1.8l-6.6,6.6a2.4,2.4,0,0,0,0,3.4l9.19,9.19a2.4,2.4,0,0,0,3.4,0l6.6-6.6c1.8-1.8-.2-4.994,1.8-6.99,2.694-2.7,5.635-2.24,7.334-.544l3.4,3.4,3.679.968,9.39-9.39L44.4,47.61c-2.994-3-3.422-6.466-1.546-8.342,2.9-2.9,7.7-7.1,12.195-8.9C57.917,29.223,57.053,26.372,54.306,25.721ZM41.567,40.86c-.013.01,1.252-1.556,1.275-1.576Z" transform="translate(0.003 -23.847)"/></g><g transform="translate(954.931 2643)"><g transform="translate(3.093 0)"><path class="b" d="M536.284,376.534c-12.451.24-18.543,9.052-19.9,17.063-1.352-8.011-7.446-16.826-19.9-17.063-11.48-.221-20.974,8.611-20.974,24.728,0,20.689,23.4,30.246,39.405,45.7.557.538.426.524.426.524a1.341,1.341,0,0,0,1.039.513h0a1.341,1.341,0,0,0,1.039-.513s-.131.014.426-.524c16-15.455,39.405-25.012,39.405-45.7C557.257,385.144,547.764,376.313,536.284,376.534Z" transform="translate(-475.515 -376.53)"/></g><g transform="translate(0 18.254)"><g transform="translate(0 0)"><path class="c" d="M479.426,428a17.128,17.128,0,0,1-6.54-1.223,2.565,2.565,0,0,1-1.59-2.372v-3.275a2.566,2.566,0,0,0,.687-3.859v-9.459a2.566,2.566,0,0,1,2.565-2.565h11.727a2.565,2.565,0,0,1,2.565,2.565v2.806a2.565,2.565,0,0,1-2.565,2.565h-.1q.214.153.416.32a7.328,7.328,0,0,1,2.625,5.853,8.12,8.12,0,0,1-2.838,6.346A10.319,10.319,0,0,1,479.426,428Zm-2.691-8.478a5.8,5.8,0,0,0,2.232.508,2.708,2.708,0,0,0,1.26-.2c0-.015.017-.1.022-.273a4.075,4.075,0,0,0-1.648-.24A10.778,10.778,0,0,0,476.735,419.524Z" transform="translate(-471.295 -402.454)"/><path class="c" d="M507.9,427.958h-3.286a2.565,2.565,0,0,1-2.565-2.565v-2.336h-7.592a2.565,2.565,0,0,1-2.565-2.565v-2.737a2.563,2.563,0,0,1,1.088-2.1l-.921-.834a2.566,2.566,0,0,1,.019-3.818,17.7,17.7,0,0,0,3.061-3.612,15.421,15.421,0,0,0,1.925-4.1,2.568,2.568,0,0,1,2.847-1.829l3.275.492A2.565,2.565,0,0,1,505.323,404h10.011a2.565,2.565,0,0,1,2.565,2.565v2.645a2.567,2.567,0,0,0-.87,2.679v2.646a2.566,2.566,0,0,0,1.408,3.217v2.737a2.565,2.565,0,0,1-2.565,2.565h-5.405v2.336A2.565,2.565,0,0,1,507.9,427.958Z" transform="translate(-476.616 -401.436)"/><path class="c" d="M531.81,428.042h-3.1a2.565,2.565,0,0,1-2.565-2.565v-5.312a2.582,2.582,0,0,1-.364-.249l-2.073-1.694a2.564,2.564,0,0,1-.515-3.4,30.067,30.067,0,0,0,2.559-5.075,28.06,28.06,0,0,0,1.724-5.7,2.565,2.565,0,0,1,2.835-2.109l3.138.377a2.569,2.569,0,0,1,1.105.406h11.986a2.565,2.565,0,0,1,2.565,2.565v7.4a2.563,2.563,0,0,1,1.122,2.121v2.508a2.565,2.565,0,0,1-1.307,2.237q.453.3.923.571a2.566,2.566,0,0,1,.764,3.76l-1.832,2.439a2.566,2.566,0,0,1-3.379.654q-.784-.475-1.543-1.032a2.564,2.564,0,0,1-2.477,1.895h-3.115a2.566,2.566,0,0,1-2.468-1.865q-.616.45-1.274.877a121.273,121.273,0,0,0-2.705,1.194Zm7.541-10.165a.438.438,0,0,0,.788-.066.632.632,0,0,0-.324-.969,2.539,2.539,0,0,1-.409.257A2.572,2.572,0,0,1,539.351,417.876Z" transform="translate(-485.042 -401.566)"/><path class="c" d="M561.464,428.173h-2.737a2.565,2.565,0,0,1-2.565-2.565V418a2.56,2.56,0,0,1,.32-1.243v-1.826a2.551,2.551,0,0,0,0-1.053v-1.127a2.558,2.558,0,0,1-.813-1.873v-2.3a2.558,2.558,0,0,1,.79-1.851v-1.148a2.565,2.565,0,0,1,2.565-2.565h7.111a2.577,2.577,0,0,0,1.146.137h12.436a2.565,2.565,0,0,1,2.565,2.565v2.622a2.565,2.565,0,0,1-2.565,2.565h-1.145v.149h.7a2.565,2.565,0,0,1,2.565,2.565v2.611a2.565,2.565,0,0,1-2.565,2.565h-.7v1.386h1.489a2.565,2.565,0,0,1,2.565,2.565v2.668a2.565,2.565,0,0,1-2.565,2.565H566.743a2.559,2.559,0,0,1-1.71-.652H563.37A2.56,2.56,0,0,1,561.464,428.173Z" transform="translate(-493.831 -401.858)"/><g transform="translate(2.565 2.565)"><path class="b" d="M474.8,425.342v-3.275h.378a9.43,9.43,0,0,0,4.729,1.466q3.848,0,3.848-3.1a2.294,2.294,0,0,0-1.065-2.027,5.707,5.707,0,0,0-3.149-.71,16.685,16.685,0,0,0-3.63.515h-.424v-9.459h11.727v2.806h-8.176v3.538q1.316-.079,1.936-.08a7.555,7.555,0,0,1,4.924,1.4,4.759,4.759,0,0,1,1.694,3.876,5.533,5.533,0,0,1-1.947,4.4,7.817,7.817,0,0,1-5.279,1.678A14.516,14.516,0,0,1,474.8,425.342Z" transform="translate(-474.795 -405.954)"/><path class="b" d="M516.807,421.426h-7.97v4.9H505.55v-4.9H495.393v-2.737h2.954V414.5q-.676.7-1.431,1.351l-2.2-1.993a20.153,20.153,0,0,0,3.51-4.134,17.916,17.916,0,0,0,2.239-4.787l3.275.492q-.343,1.169-.709,2.073h13.238v2.645h-7.432v2.679H515.4v2.646h-6.562v3.217h7.97Zm-15.127-11.28a24.93,24.93,0,0,1-1.867,2.679h5.737v-2.679Zm-.114,8.543h3.985v-3.217h-3.985Z" transform="translate(-480.116 -404.936)"/><path class="b" d="M532.745,426.411h-3.1v-9.54q-.458.745-1.305,1.993l-2.073-1.7a32.286,32.286,0,0,0,2.794-5.52,30.423,30.423,0,0,0,1.878-6.23l3.138.378a32.469,32.469,0,0,1-2.13,6.63h.8v10.73a19.413,19.413,0,0,0,5.039-4.913h-4.5v-2.508h5.909v-1.752h-4.9v-7.764h13.181v7.764h-5.165v1.752h6.287v2.508h-5a21.744,21.744,0,0,0,5.9,5.027l-1.832,2.439a21.424,21.424,0,0,1-5.348-4.718v5.21h-3.115v-5.073a22.273,22.273,0,0,1-5.141,4.5l-1.306-1.763Zm11.647-14.75v-3.127h-7.054v3.127Z" transform="translate(-488.542 -405.065)"/><path class="b" d="M567.633,411.816H559.17v-2.3h8.463Zm-.492,13.88H562.4v.847h-2.737v-7.6h7.478Zm-.069-17.143H559.96v-2.038h7.111Zm-.114,6.264h-6.974v-1.993h6.974Zm0,3.069h-6.974V415.87h6.974Zm-2.588,5.8v-2.7h-1.878v2.7ZM581,426.348H567.678V423.68h1.386V412.331h3.069V423.68h1.638V409.273h-5.554v-2.622h12.436v2.622h-3.71v5.279h3.264v2.611h-3.264v6.516H581Z" transform="translate(-497.331 -405.358)"/></g></g></g></g></g></svg>